<mxfile host="app.diagrams.net" modified="2022-10-11T09:28:23.686Z" agent="5.0 (Windows NT 10.0; Win64; x64) AppleWebKit/537.36 (KHTML, like Gecko) Chrome/105.0.0.0 Safari/537.36" etag="ezuMlUrK0Ga7fzLLChna" version="20.4.0" type="github">
  <diagram id="morUU9cmWAKuv26tPhOT" name="Page-1">
    <mxGraphModel dx="2062" dy="1122" grid="0" gridSize="10" guides="1" tooltips="1" connect="1" arrows="1" fold="1" page="1" pageScale="1" pageWidth="850" pageHeight="1100" math="0" shadow="0">
      <root>
        <mxCell id="0" />
        <mxCell id="1" parent="0" />
        <mxCell id="6g6HjUsRQfOjPdALg57s-23" value="" style="rounded=0;whiteSpace=wrap;html=1;" parent="1" vertex="1">
          <mxGeometry x="197" y="671" width="726" height="257" as="geometry" />
        </mxCell>
        <mxCell id="KAvdYZoepcuMUja05QPj-29" value="" style="rounded=0;whiteSpace=wrap;html=1;" parent="1" vertex="1">
          <mxGeometry x="190" y="155" width="640" height="332" as="geometry" />
        </mxCell>
        <mxCell id="r7qlhUp3-8EhurvDB-x7-3" value="User" style="shape=umlActor;verticalLabelPosition=bottom;verticalAlign=top;html=1;" parent="1" vertex="1">
          <mxGeometry x="140" y="240" width="30" height="60" as="geometry" />
        </mxCell>
        <mxCell id="r7qlhUp3-8EhurvDB-x7-14" value="View Work Calendar&amp;nbsp;&lt;br&gt;(Weekly)" style="ellipse;whiteSpace=wrap;html=1;" parent="1" vertex="1">
          <mxGeometry x="253" y="248" width="140" height="70" as="geometry" />
        </mxCell>
        <mxCell id="KAvdYZoepcuMUja05QPj-5" value="" style="endArrow=classic;html=1;rounded=0;exitX=1;exitY=0.3333333333333333;exitDx=0;exitDy=0;exitPerimeter=0;entryX=0;entryY=0.5;entryDx=0;entryDy=0;" parent="1" source="r7qlhUp3-8EhurvDB-x7-3" target="r7qlhUp3-8EhurvDB-x7-14" edge="1">
          <mxGeometry width="50" height="50" relative="1" as="geometry">
            <mxPoint x="200" y="260" as="sourcePoint" />
            <mxPoint x="275.0718199328321" y="287.68359327571625" as="targetPoint" />
          </mxGeometry>
        </mxCell>
        <mxCell id="KAvdYZoepcuMUja05QPj-16" value="Collector" style="shape=umlActor;verticalLabelPosition=bottom;verticalAlign=top;html=1;" parent="1" vertex="1">
          <mxGeometry x="20" y="130" width="30" height="60" as="geometry" />
        </mxCell>
        <mxCell id="KAvdYZoepcuMUja05QPj-17" value="Janitor" style="shape=umlActor;verticalLabelPosition=bottom;verticalAlign=top;html=1;" parent="1" vertex="1">
          <mxGeometry x="10" y="246" width="30" height="60" as="geometry" />
        </mxCell>
        <mxCell id="KAvdYZoepcuMUja05QPj-19" value="" style="endArrow=classic;html=1;rounded=0;" parent="1" source="KAvdYZoepcuMUja05QPj-16" edge="1">
          <mxGeometry width="50" height="50" relative="1" as="geometry">
            <mxPoint x="70" y="200" as="sourcePoint" />
            <mxPoint x="130" y="260" as="targetPoint" />
          </mxGeometry>
        </mxCell>
        <mxCell id="KAvdYZoepcuMUja05QPj-20" value="" style="endArrow=classic;html=1;rounded=0;" parent="1" edge="1">
          <mxGeometry width="50" height="50" relative="1" as="geometry">
            <mxPoint x="47" y="284" as="sourcePoint" />
            <mxPoint x="130" y="290" as="targetPoint" />
          </mxGeometry>
        </mxCell>
        <mxCell id="KAvdYZoepcuMUja05QPj-21" value="Check in Task" style="ellipse;whiteSpace=wrap;html=1;" parent="1" vertex="1">
          <mxGeometry x="663" y="176" width="140" height="70" as="geometry" />
        </mxCell>
        <mxCell id="KAvdYZoepcuMUja05QPj-23" value="Check out Task" style="ellipse;whiteSpace=wrap;html=1;" parent="1" vertex="1">
          <mxGeometry x="663" y="400" width="140" height="70" as="geometry" />
        </mxCell>
        <mxCell id="KAvdYZoepcuMUja05QPj-30" style="edgeStyle=orthogonalEdgeStyle;rounded=0;orthogonalLoop=1;jettySize=auto;html=1;exitX=0.5;exitY=1;exitDx=0;exitDy=0;" parent="1" source="KAvdYZoepcuMUja05QPj-29" target="KAvdYZoepcuMUja05QPj-29" edge="1">
          <mxGeometry relative="1" as="geometry" />
        </mxCell>
        <mxCell id="6g6HjUsRQfOjPdALg57s-2" value="&amp;lt;&amp;lt;extend&amp;gt;&amp;gt;" style="html=1;verticalAlign=bottom;labelBackgroundColor=none;endArrow=open;endFill=0;dashed=1;rounded=0;exitX=0;exitY=0.5;exitDx=0;exitDy=0;entryX=1;entryY=0;entryDx=0;entryDy=0;" parent="1" source="KAvdYZoepcuMUja05QPj-21" target="qaKXl99gpySLwLDXyeAa-1" edge="1">
          <mxGeometry x="-0.1958" y="-1" width="160" relative="1" as="geometry">
            <mxPoint x="219" y="367" as="sourcePoint" />
            <mxPoint x="561" y="286" as="targetPoint" />
            <mxPoint as="offset" />
          </mxGeometry>
        </mxCell>
        <mxCell id="6g6HjUsRQfOjPdALg57s-3" value="&amp;lt;&amp;lt;extend&amp;gt;&amp;gt;" style="html=1;verticalAlign=bottom;labelBackgroundColor=none;endArrow=open;endFill=0;dashed=1;rounded=0;exitX=0;exitY=0;exitDx=0;exitDy=0;entryX=1;entryY=1;entryDx=0;entryDy=0;" parent="1" source="KAvdYZoepcuMUja05QPj-23" target="qaKXl99gpySLwLDXyeAa-1" edge="1">
          <mxGeometry x="-0.1332" y="-10" width="160" relative="1" as="geometry">
            <mxPoint x="237" y="367" as="sourcePoint" />
            <mxPoint x="550" y="364" as="targetPoint" />
            <mxPoint as="offset" />
          </mxGeometry>
        </mxCell>
        <mxCell id="6g6HjUsRQfOjPdALg57s-4" value="Collectors" style="shape=umlActor;verticalLabelPosition=bottom;verticalAlign=top;html=1;" parent="1" vertex="1">
          <mxGeometry x="33" y="632" width="30" height="60" as="geometry" />
        </mxCell>
        <mxCell id="6g6HjUsRQfOjPdALg57s-5" value="Back Officers" style="shape=umlActor;verticalLabelPosition=bottom;verticalAlign=top;html=1;" parent="1" vertex="1">
          <mxGeometry x="33" y="757" width="30" height="60" as="geometry" />
        </mxCell>
        <mxCell id="6g6HjUsRQfOjPdALg57s-6" value="Janitors" style="shape=umlActor;verticalLabelPosition=bottom;verticalAlign=top;html=1;" parent="1" vertex="1">
          <mxGeometry x="33" y="899" width="30" height="60" as="geometry" />
        </mxCell>
        <mxCell id="6g6HjUsRQfOjPdALg57s-7" value="User" style="shape=umlActor;verticalLabelPosition=bottom;verticalAlign=top;html=1;" parent="1" vertex="1">
          <mxGeometry x="152" y="757" width="30" height="60" as="geometry" />
        </mxCell>
        <mxCell id="6g6HjUsRQfOjPdALg57s-8" value="" style="endArrow=classic;html=1;rounded=0;" parent="1" source="6g6HjUsRQfOjPdALg57s-4" edge="1">
          <mxGeometry width="50" height="50" relative="1" as="geometry">
            <mxPoint x="137" y="655" as="sourcePoint" />
            <mxPoint x="151" y="791" as="targetPoint" />
          </mxGeometry>
        </mxCell>
        <mxCell id="6g6HjUsRQfOjPdALg57s-9" value="" style="endArrow=classic;html=1;rounded=0;" parent="1" source="6g6HjUsRQfOjPdALg57s-5" edge="1">
          <mxGeometry width="50" height="50" relative="1" as="geometry">
            <mxPoint x="399" y="818" as="sourcePoint" />
            <mxPoint x="153" y="799" as="targetPoint" />
          </mxGeometry>
        </mxCell>
        <mxCell id="6g6HjUsRQfOjPdALg57s-10" value="" style="endArrow=classic;html=1;rounded=0;" parent="1" source="6g6HjUsRQfOjPdALg57s-6" edge="1">
          <mxGeometry width="50" height="50" relative="1" as="geometry">
            <mxPoint x="399" y="818" as="sourcePoint" />
            <mxPoint x="149" y="810" as="targetPoint" />
          </mxGeometry>
        </mxCell>
        <mxCell id="6g6HjUsRQfOjPdALg57s-12" value="Receive Message" style="ellipse;whiteSpace=wrap;html=1;" parent="1" vertex="1">
          <mxGeometry x="768" y="692" width="114" height="57" as="geometry" />
        </mxCell>
        <mxCell id="6g6HjUsRQfOjPdALg57s-13" value="Send Message" style="ellipse;whiteSpace=wrap;html=1;" parent="1" vertex="1">
          <mxGeometry x="755" y="851" width="117" height="55" as="geometry" />
        </mxCell>
        <mxCell id="6g6HjUsRQfOjPdALg57s-15" value="Show chat window" style="ellipse;whiteSpace=wrap;html=1;" parent="1" vertex="1">
          <mxGeometry x="617" y="751" width="114" height="66" as="geometry" />
        </mxCell>
        <mxCell id="6g6HjUsRQfOjPdALg57s-16" value="Manage chat history" style="ellipse;whiteSpace=wrap;html=1;" parent="1" vertex="1">
          <mxGeometry x="425" y="753.5" width="120" height="61" as="geometry" />
        </mxCell>
        <mxCell id="6g6HjUsRQfOjPdALg57s-22" value="&amp;lt;&amp;lt;extend&amp;gt;&amp;gt;" style="html=1;verticalAlign=bottom;labelBackgroundColor=none;endArrow=open;endFill=0;dashed=1;rounded=0;exitX=0;exitY=0.5;exitDx=0;exitDy=0;entryX=1;entryY=0.5;entryDx=0;entryDy=0;" parent="1" source="6g6HjUsRQfOjPdALg57s-15" target="6g6HjUsRQfOjPdALg57s-16" edge="1">
          <mxGeometry width="160" relative="1" as="geometry">
            <mxPoint x="344" y="817" as="sourcePoint" />
            <mxPoint x="504" y="817" as="targetPoint" />
          </mxGeometry>
        </mxCell>
        <mxCell id="pgsXoSgavxvvVbd63I5S-4" value="Message" style="ellipse;whiteSpace=wrap;html=1;" parent="1" vertex="1">
          <mxGeometry x="218" y="759.5" width="109" height="55" as="geometry" />
        </mxCell>
        <mxCell id="pgsXoSgavxvvVbd63I5S-5" value="" style="endArrow=classic;html=1;rounded=0;exitX=0.5;exitY=0.5;exitDx=0;exitDy=0;exitPerimeter=0;entryX=0;entryY=0.5;entryDx=0;entryDy=0;" parent="1" source="6g6HjUsRQfOjPdALg57s-7" target="pgsXoSgavxvvVbd63I5S-4" edge="1">
          <mxGeometry width="50" height="50" relative="1" as="geometry">
            <mxPoint x="399" y="589" as="sourcePoint" />
            <mxPoint x="449" y="539" as="targetPoint" />
          </mxGeometry>
        </mxCell>
        <mxCell id="pgsXoSgavxvvVbd63I5S-7" value="&amp;lt;&amp;lt;include&amp;gt;&amp;gt;" style="endArrow=classic;html=1;rounded=0;exitX=1;exitY=0.5;exitDx=0;exitDy=0;entryX=0;entryY=0.5;entryDx=0;entryDy=0;dashed=1;" parent="1" source="pgsXoSgavxvvVbd63I5S-4" target="6g6HjUsRQfOjPdALg57s-16" edge="1">
          <mxGeometry width="50" height="50" relative="1" as="geometry">
            <mxPoint x="399" y="589" as="sourcePoint" />
            <mxPoint x="449" y="539" as="targetPoint" />
          </mxGeometry>
        </mxCell>
        <mxCell id="pgsXoSgavxvvVbd63I5S-9" value="&amp;lt;&amp;lt;extend&amp;gt;&amp;gt;" style="endArrow=classic;html=1;rounded=0;dashed=1;exitX=0;exitY=0.5;exitDx=0;exitDy=0;" parent="1" source="6g6HjUsRQfOjPdALg57s-12" target="6g6HjUsRQfOjPdALg57s-15" edge="1">
          <mxGeometry width="50" height="50" relative="1" as="geometry">
            <mxPoint x="399" y="589" as="sourcePoint" />
            <mxPoint x="449" y="539" as="targetPoint" />
          </mxGeometry>
        </mxCell>
        <mxCell id="pgsXoSgavxvvVbd63I5S-10" value="&amp;lt;&amp;lt;extend&amp;gt;&amp;gt;" style="endArrow=classic;html=1;rounded=0;dashed=1;exitX=0.043;exitY=0.2;exitDx=0;exitDy=0;exitPerimeter=0;entryX=1;entryY=1;entryDx=0;entryDy=0;" parent="1" source="6g6HjUsRQfOjPdALg57s-13" target="6g6HjUsRQfOjPdALg57s-15" edge="1">
          <mxGeometry width="50" height="50" relative="1" as="geometry">
            <mxPoint x="399" y="589" as="sourcePoint" />
            <mxPoint x="449" y="539" as="targetPoint" />
          </mxGeometry>
        </mxCell>
        <mxCell id="qaKXl99gpySLwLDXyeAa-1" value="View detail work in a day" style="ellipse;whiteSpace=wrap;html=1;" vertex="1" parent="1">
          <mxGeometry x="483" y="247" width="122" height="72" as="geometry" />
        </mxCell>
        <mxCell id="qaKXl99gpySLwLDXyeAa-3" value="&amp;lt;&amp;lt;extend&amp;gt;&amp;gt;" style="endArrow=classic;html=1;rounded=0;exitX=0;exitY=0.5;exitDx=0;exitDy=0;entryX=1;entryY=0.5;entryDx=0;entryDy=0;dashed=1;" edge="1" parent="1" source="qaKXl99gpySLwLDXyeAa-1" target="r7qlhUp3-8EhurvDB-x7-14">
          <mxGeometry width="50" height="50" relative="1" as="geometry">
            <mxPoint x="60" y="390" as="sourcePoint" />
            <mxPoint x="140" y="300" as="targetPoint" />
          </mxGeometry>
        </mxCell>
        <mxCell id="qaKXl99gpySLwLDXyeAa-4" value="Back Officers" style="shape=umlActor;verticalLabelPosition=bottom;verticalAlign=top;html=1;" vertex="1" parent="1">
          <mxGeometry x="25" y="357" width="30" height="60" as="geometry" />
        </mxCell>
        <mxCell id="qaKXl99gpySLwLDXyeAa-5" value="" style="endArrow=classic;html=1;rounded=0;" edge="1" parent="1" source="qaKXl99gpySLwLDXyeAa-4">
          <mxGeometry width="50" height="50" relative="1" as="geometry">
            <mxPoint x="424" y="505" as="sourcePoint" />
            <mxPoint x="118" y="320" as="targetPoint" />
          </mxGeometry>
        </mxCell>
      </root>
    </mxGraphModel>
  </diagram>
</mxfile>
